<mxfile host="Electron" modified="2024-03-08T18:41:47.270Z" agent="Mozilla/5.0 (X11; Linux x86_64) AppleWebKit/537.36 (KHTML, like Gecko) draw.io/23.1.5 Chrome/120.0.6099.109 Electron/28.1.0 Safari/537.36" etag="zZx5dxquCCSmoUStNhxL" version="23.1.5" type="device">
  <diagram id="STEBfEphsbRQPfoHGECy" name="Página-1">
    <mxGraphModel dx="989" dy="578" grid="1" gridSize="10" guides="1" tooltips="1" connect="1" arrows="1" fold="1" page="1" pageScale="1" pageWidth="827" pageHeight="1169" math="0" shadow="0">
      <root>
        <mxCell id="0" />
        <mxCell id="1" parent="0" />
        <mxCell id="hQvGvdslbpYfb55w5hF3-158" value="" style="rounded=0;orthogonalLoop=1;jettySize=auto;html=1;endArrow=halfCircle;endFill=0;endSize=6;strokeWidth=1;sketch=0;entryX=0.414;entryY=0.771;entryDx=0;entryDy=0;entryPerimeter=0;" parent="1" target="hQvGvdslbpYfb55w5hF3-160" edge="1">
          <mxGeometry relative="1" as="geometry">
            <mxPoint x="220" y="690" as="sourcePoint" />
            <mxPoint x="220" y="710" as="targetPoint" />
          </mxGeometry>
        </mxCell>
        <mxCell id="hQvGvdslbpYfb55w5hF3-159" value="" style="rounded=0;orthogonalLoop=1;jettySize=auto;html=1;endArrow=oval;endFill=0;sketch=0;sourcePerimeterSpacing=0;targetPerimeterSpacing=0;endSize=10;exitX=0.5;exitY=0;exitDx=0;exitDy=0;" parent="1" source="hQvGvdslbpYfb55w5hF3-172" target="hQvGvdslbpYfb55w5hF3-160" edge="1">
          <mxGeometry relative="1" as="geometry">
            <mxPoint x="215" y="740" as="sourcePoint" />
          </mxGeometry>
        </mxCell>
        <mxCell id="hQvGvdslbpYfb55w5hF3-160" value="" style="ellipse;whiteSpace=wrap;html=1;align=center;aspect=fixed;fillColor=none;strokeColor=none;resizable=0;perimeter=centerPerimeter;rotatable=0;allowArrows=0;points=[];outlineConnect=1;" parent="1" vertex="1">
          <mxGeometry x="215" y="711" width="10" height="10" as="geometry" />
        </mxCell>
        <mxCell id="hQvGvdslbpYfb55w5hF3-170" value="" style="endArrow=none;html=1;rounded=0;" parent="1" edge="1">
          <mxGeometry width="50" height="50" relative="1" as="geometry">
            <mxPoint x="170" y="690" as="sourcePoint" />
            <mxPoint x="670" y="690" as="targetPoint" />
          </mxGeometry>
        </mxCell>
        <mxCell id="hQvGvdslbpYfb55w5hF3-172" value="«componente»&lt;br&gt;&lt;b&gt;Conversations&lt;/b&gt;" style="html=1;dropTarget=0;whiteSpace=wrap;" parent="1" vertex="1">
          <mxGeometry x="140" y="740" width="160" height="60" as="geometry" />
        </mxCell>
        <mxCell id="hQvGvdslbpYfb55w5hF3-173" value="" style="shape=module;jettyWidth=8;jettyHeight=4;" parent="hQvGvdslbpYfb55w5hF3-172" vertex="1">
          <mxGeometry x="1" width="20" height="20" relative="1" as="geometry">
            <mxPoint x="-27" y="7" as="offset" />
          </mxGeometry>
        </mxCell>
        <mxCell id="hQvGvdslbpYfb55w5hF3-174" value="" style="rounded=0;orthogonalLoop=1;jettySize=auto;html=1;endArrow=halfCircle;endFill=0;endSize=6;strokeWidth=1;sketch=0;" parent="1" target="hQvGvdslbpYfb55w5hF3-176" edge="1">
          <mxGeometry relative="1" as="geometry">
            <mxPoint x="420" y="690" as="sourcePoint" />
            <mxPoint x="420" y="710" as="targetPoint" />
          </mxGeometry>
        </mxCell>
        <mxCell id="hQvGvdslbpYfb55w5hF3-189" value="" style="rounded=0;orthogonalLoop=1;jettySize=auto;html=1;endArrow=halfCircle;endFill=0;endSize=6;strokeWidth=1;sketch=0;entryX=0.3;entryY=0.657;entryDx=0;entryDy=0;entryPerimeter=0;" parent="1" target="hQvGvdslbpYfb55w5hF3-191" edge="1">
          <mxGeometry relative="1" as="geometry">
            <mxPoint x="620" y="690" as="sourcePoint" />
            <mxPoint x="640" y="710" as="targetPoint" />
          </mxGeometry>
        </mxCell>
        <mxCell id="hQvGvdslbpYfb55w5hF3-190" value="" style="rounded=0;orthogonalLoop=1;jettySize=auto;html=1;endArrow=oval;endFill=0;sketch=0;sourcePerimeterSpacing=0;targetPerimeterSpacing=0;endSize=10;exitX=0.5;exitY=0;exitDx=0;exitDy=0;" parent="1" source="4ltl4C2bIEXPds2cLsU4-16" target="hQvGvdslbpYfb55w5hF3-191" edge="1">
          <mxGeometry relative="1" as="geometry">
            <mxPoint x="640.6500000000001" y="740.78" as="sourcePoint" />
          </mxGeometry>
        </mxCell>
        <mxCell id="hQvGvdslbpYfb55w5hF3-191" value="" style="ellipse;whiteSpace=wrap;html=1;align=center;aspect=fixed;fillColor=none;strokeColor=none;resizable=0;perimeter=centerPerimeter;rotatable=0;allowArrows=0;points=[];outlineConnect=1;" parent="1" vertex="1">
          <mxGeometry x="615" y="711" width="10" height="10" as="geometry" />
        </mxCell>
        <mxCell id="hQvGvdslbpYfb55w5hF3-195" value="&lt;font style=&quot;font-size: 20px;&quot;&gt;...&lt;/font&gt;" style="text;html=1;align=center;verticalAlign=middle;whiteSpace=wrap;rounded=0;fontSize=20;" parent="1" vertex="1">
          <mxGeometry x="670" y="670" width="30" height="30" as="geometry" />
        </mxCell>
        <mxCell id="4ltl4C2bIEXPds2cLsU4-4" value="" style="endArrow=none;html=1;rounded=0;" parent="1" edge="1">
          <mxGeometry width="50" height="50" relative="1" as="geometry">
            <mxPoint x="170" y="840" as="sourcePoint" />
            <mxPoint x="670" y="840" as="targetPoint" />
          </mxGeometry>
        </mxCell>
        <mxCell id="4ltl4C2bIEXPds2cLsU4-9" value="" style="endArrow=classic;html=1;rounded=0;entryX=0.5;entryY=1;entryDx=0;entryDy=0;" parent="1" target="4ltl4C2bIEXPds2cLsU4-16" edge="1">
          <mxGeometry width="50" height="50" relative="1" as="geometry">
            <mxPoint x="620" y="840" as="sourcePoint" />
            <mxPoint x="619.71" y="800" as="targetPoint" />
          </mxGeometry>
        </mxCell>
        <mxCell id="4ltl4C2bIEXPds2cLsU4-11" value="" style="endArrow=classic;html=1;rounded=0;entryX=0.5;entryY=1;entryDx=0;entryDy=0;" parent="1" edge="1">
          <mxGeometry width="50" height="50" relative="1" as="geometry">
            <mxPoint x="220" y="840" as="sourcePoint" />
            <mxPoint x="220" y="800" as="targetPoint" />
          </mxGeometry>
        </mxCell>
        <mxCell id="4ltl4C2bIEXPds2cLsU4-12" value="«componente»&lt;br&gt;&lt;b&gt;IpMessaging&lt;/b&gt;" style="html=1;dropTarget=0;whiteSpace=wrap;" parent="1" vertex="1">
          <mxGeometry x="340" y="740" width="160" height="60" as="geometry" />
        </mxCell>
        <mxCell id="4ltl4C2bIEXPds2cLsU4-13" value="" style="shape=module;jettyWidth=8;jettyHeight=4;" parent="4ltl4C2bIEXPds2cLsU4-12" vertex="1">
          <mxGeometry x="1" width="20" height="20" relative="1" as="geometry">
            <mxPoint x="-27" y="7" as="offset" />
          </mxGeometry>
        </mxCell>
        <mxCell id="4ltl4C2bIEXPds2cLsU4-15" value="" style="rounded=0;orthogonalLoop=1;jettySize=auto;html=1;endArrow=oval;endFill=0;sketch=0;sourcePerimeterSpacing=0;targetPerimeterSpacing=0;endSize=10;exitX=0.5;exitY=0;exitDx=0;exitDy=0;" parent="1" source="4ltl4C2bIEXPds2cLsU4-12" target="hQvGvdslbpYfb55w5hF3-176" edge="1">
          <mxGeometry relative="1" as="geometry">
            <mxPoint x="420" y="740" as="sourcePoint" />
            <mxPoint x="420" y="710" as="targetPoint" />
          </mxGeometry>
        </mxCell>
        <mxCell id="hQvGvdslbpYfb55w5hF3-176" value="" style="ellipse;whiteSpace=wrap;html=1;align=center;aspect=fixed;fillColor=none;strokeColor=none;resizable=0;perimeter=centerPerimeter;rotatable=0;allowArrows=0;points=[];outlineConnect=1;" parent="1" vertex="1">
          <mxGeometry x="415" y="711" width="10" height="10" as="geometry" />
        </mxCell>
        <mxCell id="4ltl4C2bIEXPds2cLsU4-16" value="«componente»&lt;br&gt;&lt;b&gt;Messaging&lt;/b&gt;" style="html=1;dropTarget=0;whiteSpace=wrap;" parent="1" vertex="1">
          <mxGeometry x="540" y="740" width="160" height="60" as="geometry" />
        </mxCell>
        <mxCell id="4ltl4C2bIEXPds2cLsU4-17" value="" style="shape=module;jettyWidth=8;jettyHeight=4;" parent="4ltl4C2bIEXPds2cLsU4-16" vertex="1">
          <mxGeometry x="1" width="20" height="20" relative="1" as="geometry">
            <mxPoint x="-27" y="7" as="offset" />
          </mxGeometry>
        </mxCell>
        <mxCell id="4ltl4C2bIEXPds2cLsU4-19" value="&lt;font style=&quot;font-size: 20px;&quot;&gt;...&lt;/font&gt;" style="text;html=1;align=center;verticalAlign=middle;whiteSpace=wrap;rounded=0;fontSize=20;" parent="1" vertex="1">
          <mxGeometry x="670" y="820" width="30" height="30" as="geometry" />
        </mxCell>
        <mxCell id="4ltl4C2bIEXPds2cLsU4-20" value="" style="endArrow=classic;html=1;rounded=0;entryX=0.5;entryY=1;entryDx=0;entryDy=0;exitX=0.5;exitY=0;exitDx=0;exitDy=0;" parent="1" source="4ltl4C2bIEXPds2cLsU4-21" target="4ltl4C2bIEXPds2cLsU4-12" edge="1">
          <mxGeometry width="50" height="50" relative="1" as="geometry">
            <mxPoint x="570" y="860" as="sourcePoint" />
            <mxPoint x="630" y="810" as="targetPoint" />
          </mxGeometry>
        </mxCell>
        <mxCell id="4ltl4C2bIEXPds2cLsU4-21" value="«componente»&lt;br&gt;&lt;b&gt;Domain&lt;/b&gt;" style="html=1;dropTarget=0;whiteSpace=wrap;" parent="1" vertex="1">
          <mxGeometry x="340" y="880" width="160" height="60" as="geometry" />
        </mxCell>
        <mxCell id="4ltl4C2bIEXPds2cLsU4-22" value="" style="shape=module;jettyWidth=8;jettyHeight=4;" parent="4ltl4C2bIEXPds2cLsU4-21" vertex="1">
          <mxGeometry x="1" width="20" height="20" relative="1" as="geometry">
            <mxPoint x="-27" y="7" as="offset" />
          </mxGeometry>
        </mxCell>
        <mxCell id="4ltl4C2bIEXPds2cLsU4-23" value="«componente»&lt;br&gt;&lt;b&gt;Client&lt;/b&gt;" style="html=1;dropTarget=0;whiteSpace=wrap;" parent="1" vertex="1">
          <mxGeometry x="340" y="570" width="160" height="80" as="geometry" />
        </mxCell>
        <mxCell id="4ltl4C2bIEXPds2cLsU4-24" value="" style="shape=module;jettyWidth=8;jettyHeight=4;" parent="4ltl4C2bIEXPds2cLsU4-23" vertex="1">
          <mxGeometry x="1" width="20" height="20" relative="1" as="geometry">
            <mxPoint x="-27" y="7" as="offset" />
          </mxGeometry>
        </mxCell>
        <mxCell id="4ltl4C2bIEXPds2cLsU4-26" value="" style="endArrow=none;html=1;rounded=0;entryX=0.5;entryY=1;entryDx=0;entryDy=0;" parent="1" target="4ltl4C2bIEXPds2cLsU4-23" edge="1">
          <mxGeometry width="50" height="50" relative="1" as="geometry">
            <mxPoint x="420" y="690" as="sourcePoint" />
            <mxPoint x="440" y="760" as="targetPoint" />
          </mxGeometry>
        </mxCell>
        <mxCell id="4ltl4C2bIEXPds2cLsU4-29" style="edgeStyle=orthogonalEdgeStyle;rounded=0;orthogonalLoop=1;jettySize=auto;html=1;entryX=0;entryY=0.5;entryDx=0;entryDy=0;" parent="1" source="4ltl4C2bIEXPds2cLsU4-27" target="4ltl4C2bIEXPds2cLsU4-23" edge="1">
          <mxGeometry relative="1" as="geometry" />
        </mxCell>
        <mxCell id="4ltl4C2bIEXPds2cLsU4-27" value="«componente»&lt;br&gt;&lt;b&gt;ClientBase&lt;/b&gt;" style="html=1;dropTarget=0;whiteSpace=wrap;" parent="1" vertex="1">
          <mxGeometry x="140" y="580" width="160" height="60" as="geometry" />
        </mxCell>
        <mxCell id="4ltl4C2bIEXPds2cLsU4-28" value="" style="shape=module;jettyWidth=8;jettyHeight=4;" parent="4ltl4C2bIEXPds2cLsU4-27" vertex="1">
          <mxGeometry x="1" width="20" height="20" relative="1" as="geometry">
            <mxPoint x="-27" y="7" as="offset" />
          </mxGeometry>
        </mxCell>
        <mxCell id="qhCQ4R7YUpp5n4PfjACc-1" value="&lt;font style=&quot;font-size: 20px;&quot;&gt;...&lt;/font&gt;" style="text;html=1;align=center;verticalAlign=middle;whiteSpace=wrap;rounded=0;fontSize=20;" vertex="1" parent="1">
          <mxGeometry x="140" y="820" width="30" height="30" as="geometry" />
        </mxCell>
        <mxCell id="qhCQ4R7YUpp5n4PfjACc-2" value="&lt;font style=&quot;font-size: 20px;&quot;&gt;...&lt;/font&gt;" style="text;html=1;align=center;verticalAlign=middle;whiteSpace=wrap;rounded=0;fontSize=20;" vertex="1" parent="1">
          <mxGeometry x="140" y="670" width="30" height="30" as="geometry" />
        </mxCell>
      </root>
    </mxGraphModel>
  </diagram>
</mxfile>
